<?xml version="1.0" encoding="utf-8"?>
<!-- Generator: Adobe Illustrator 26.0.1, SVG Export Plug-In . SVG Version: 6.00 Build 0)  -->
<svg version="1.1" id="Capa_1" xmlns="http://www.w3.org/2000/svg" xmlns:xlink="http://www.w3.org/1999/xlink" x="0px" y="0px"
	 viewBox="0 0 150 150" style="enable-background:new 0 0 150 150;" xml:space="preserve">
<style type="text/css">
	.st0{fill:#DDC190;}
</style>
<path class="st0" d="M96.8,46.8L96.8,46.8c-0.4-0.4-1-0.6-1.6-0.5L59,51c-1,0.1-1.8,1-1.8,2v39.4c-2.3-1.9-5.3-3-8.4-3
	c-6.9,0-12.6,5.1-12.6,11.4c0,6.3,5.6,11.4,12.6,11.4s12.6-5.1,12.6-11.4c0-0.2,0-0.5,0-0.7c0-0.1,0-0.2,0-0.3V66.8l32.1-4.1v18.1
	c-2.3-1.9-5.3-3-8.4-3c-6.9,0-12.6,5.1-12.6,11.4c0,6.3,5.6,11.4,12.6,11.4c6.8,0,12.4-5,12.6-11.1l0-41.2
	C97.5,47.7,97.3,47.2,96.8,46.8z M93.4,89.2c0,4-3.8,7.3-8.4,7.3c-4.7,0-8.4-3.3-8.4-7.3c0-4,3.8-7.3,8.4-7.3
	C89.6,81.9,93.4,85.2,93.4,89.2z M93.4,50.7v7.8l-32.1,4.1v-7.8L93.4,50.7z M57.2,100.9c0,4-3.8,7.3-8.4,7.3c-4.7,0-8.4-3.3-8.4-7.3
	c0-4,3.8-7.3,8.4-7.3C53.4,93.6,57.2,96.9,57.2,100.9z"/>
</svg>
