<?xml version="1.0" encoding="utf-8"?>
<!-- Generator: Adobe Illustrator 26.0.1, SVG Export Plug-In . SVG Version: 6.00 Build 0)  -->
<svg version="1.1" id="Capa_1" xmlns="http://www.w3.org/2000/svg" xmlns:xlink="http://www.w3.org/1999/xlink" x="0px" y="0px"
	 viewBox="0 0 150 150" style="enable-background:new 0 0 150 150;" xml:space="preserve">
<style type="text/css">
	.st0{fill:#DDC190;}
</style>
<g>
	<g>
		<path class="st0" d="M89.3,108.7H60.7c-10.4,0-18.9-8.5-18.9-18.9V61.2c0-10.4,8.5-18.9,18.9-18.9h28.6c10.4,0,18.9,8.5,18.9,18.9
			v28.6C108.2,100.2,99.7,108.7,89.3,108.7z M60.7,48c-7.3,0-13.2,5.9-13.2,13.2v28.6c0,7.3,5.9,13.2,13.2,13.2h28.6
			c7.3,0,13.2-5.9,13.2-13.2V61.2c0-7.3-5.9-13.2-13.2-13.2H60.7z"/>
	</g>
	<g>
		<path class="st0" d="M75,92.5c-9.4,0-17-7.6-17-17c0-9.4,7.6-17,17-17c9.4,0,17,7.6,17,17S84.4,92.5,75,92.5z M75,64.2
			c-6.2,0-11.3,5.1-11.3,11.3c0,6.2,5.1,11.3,11.3,11.3s11.3-5.1,11.3-11.3C86.3,69.3,81.2,64.2,75,64.2z"/>
	</g>
	<g>
		<path class="st0" d="M96.8,57.5c0,2.3-1.8,4.1-4.1,4.1s-4.1-1.8-4.1-4.1s1.8-4.1,4.1-4.1C95,53.4,96.8,55.3,96.8,57.5z"/>
	</g>
</g>
</svg>
