<?xml version="1.0" encoding="utf-8"?>
<!-- Generator: Adobe Illustrator 26.0.1, SVG Export Plug-In . SVG Version: 6.00 Build 0)  -->
<svg version="1.1" id="Capa_1" xmlns="http://www.w3.org/2000/svg" xmlns:xlink="http://www.w3.org/1999/xlink" x="0px" y="0px"
	 viewBox="0 0 150 150" style="enable-background:new 0 0 150 150;" xml:space="preserve">
<style type="text/css">
	.st0{fill:#DDC190;}
</style>
<g>
	<path class="st0" d="M115.7,107.9H109V85.3l4.5,1.7c0.1,0,0.2,0.1,0.4,0.1c0.4,0,0.8-0.2,1-0.7s-0.1-1.1-0.6-1.3l-21.9-8.5
		c-0.5-0.2-1.1,0.1-1.3,0.6c-0.2,0.5,0.1,1.1,0.6,1.3l15.3,5.9v23.4H90.1v-35l2.3,2c0.3,0.3,0.7,0.3,1.1,0.2
		c0.4-0.2,0.6-0.5,0.6-0.9v-8.5c0-0.3-0.1-0.6-0.4-0.8l-17-14.1v-8.5h3c0.6,0,1-0.5,1-1s-0.5-1-1-1h-3v-2.5c0-0.6-0.5-1-1-1
		c-0.6,0-1,0.5-1,1v2.5h-3.2c-0.6,0-1,0.5-1,1s0.5,1,1,1h3.2v8.2l-18,15.8c-0.2,0.2-0.3,0.5-0.3,0.8v8.3c0,0.4,0.2,0.8,0.6,0.9
		c0.1,0.1,0.3,0.1,0.4,0.1c0.2,0,0.5-0.1,0.7-0.3l2.3-2v33.8H44V84.4l15-5.8c0.5-0.2,0.8-0.8,0.6-1.3s-0.8-0.8-1.3-0.6l-21.9,8.5
		c-0.5,0.2-0.8,0.8-0.6,1.3c0.2,0.4,0.5,0.7,1,0.7c0.1,0,0.2,0,0.4-0.1l4.9-1.9v22.7h-5.2c-0.6,0-1,0.5-1,1c0,0.6,0.5,1,1,1h79
		c0.6,0,1-0.5,1-1C116.7,108.4,116.3,107.9,115.7,107.9z M58.4,67.5l17.1-15.1l16.6,13.7v5.7L76.3,58.3c-0.4-0.3-1-0.3-1.4,0
		l-14,12.5c-0.2,0.1-0.4,0.2-0.5,0.4l-2,1.8V67.5z M62.4,72.2l13.3-11.8l12.4,10.7v36.8h-4.8V96.6c0-5.3-3.8-7.6-7.6-7.6
		c-3.8,0-7.6,2.4-7.6,7.6v11.3h-5.7C62.4,107.9,62.4,72.2,62.4,72.2z M81.2,107.9h-11V96.6c0-4.1,2.9-5.6,5.5-5.6
		c2.7,0,5.5,1.5,5.5,5.6V107.9z"/>
	<path class="st0" d="M46.9,92.2v9.6c0,0.6,0.5,1,1,1h8.5c0.6,0,1-0.5,1-1v-9.6c0-4.3-2.7-6.2-5.3-6.2C49.5,86.1,46.9,88,46.9,92.2z
		 M55.4,92.2v8.6h-6.5v-8.6c0-3,1.7-4.1,3.2-4.1C53.7,88.1,55.4,89.2,55.4,92.2z"/>
	<path class="st0" d="M102.8,102.9c0.6,0,1-0.5,1-1v-9.6c0-4.3-2.7-6.2-5.3-6.2s-5.3,1.9-5.3,6.2v9.6c0,0.6,0.5,1,1,1H102.8z
		 M95.3,92.2c0-3,1.7-4.1,3.2-4.1c1.6,0,3.2,1.1,3.2,4.1v8.6h-6.5v-8.6H95.3z"/>
	<path class="st0" d="M75.7,80.4c2.4,0,4.4-2,4.4-4.4s-2-4.4-4.4-4.4s-4.4,2-4.4,4.4S73.2,80.4,75.7,80.4z M75.7,73.7
		c1.3,0,2.3,1.1,2.3,2.3c0,1.3-1.1,2.3-2.3,2.3c-1.3,0-2.3-1.1-2.3-2.3C73.3,74.7,74.4,73.7,75.7,73.7z"/>
</g>
</svg>
