<?xml version="1.0" encoding="utf-8"?>
<!-- Generator: Adobe Illustrator 26.0.1, SVG Export Plug-In . SVG Version: 6.00 Build 0)  -->
<svg version="1.1" id="Capa_1" xmlns="http://www.w3.org/2000/svg" xmlns:xlink="http://www.w3.org/1999/xlink" x="0px" y="0px"
	 viewBox="0 0 150 150" style="enable-background:new 0 0 150 150;" xml:space="preserve">
<style type="text/css">
	.st0{fill:#DDC190;}
</style>
<g>
	<g>
		<path class="st0" d="M106.4,78.6H82.5v-3H106l0-13H44.4v13h23.8v3H44.2c-1.5,0-2.8-1.3-2.8-2.8V62.1c0-1.4,1.2-2.6,2.8-2.6h62.2
			c1.5,0,2.6,1.1,2.6,2.6v13.6C109,77.3,107.8,78.6,106.4,78.6z"/>
		<path class="st0" d="M102.2,114.5H48.6c-1.5,0-2.8-1.3-2.8-2.8V78.2c0-1.4,1.2-2.6,2.8-2.6h19.5v3H48.7v33h53.1l0-33.4
			c0,0.2,0.2,0.3,0.3,0.3v-3c1.5,0,2.6,1.2,2.6,2.6v33.5C104.8,113.3,103.7,114.5,102.2,114.5z"/>
		<path class="st0" d="M83.9,114.5H66.6V59.6h17.3V114.5L83.9,114.5z M69.6,111.5H81v-49H69.6V111.5z"/>
		<path class="st0" d="M89.1,62.4h-12c-1,0-2.4-0.9-3-2.3c-0.6-1.3-0.7-3.5,1.9-6.3c1.7-1.8,7.5-7.7,13.1-7.7c2.5,0,4.6,1.2,6,3.5
			c1.1,1.8,1.4,3.6,0.9,5.5c-1.2,4.3-6.4,7.1-6.6,7.2L89.1,62.4z M77.3,59.4h11.1c1.4-0.8,4.2-2.8,4.8-5.1c0.3-1.1,0.1-2.1-0.6-3.1
			c-0.9-1.5-2-2.1-3.5-2.1c-3.5,0-8,3.6-10.9,6.8c-1.1,1.2-1.6,2.3-1.5,3C76.9,59.1,77.1,59.3,77.3,59.4z"/>
		<path class="st0" d="M73.3,62.4h-12l-0.3-0.2c-0.2-0.1-5.4-2.9-6.6-7.2c-0.5-1.9-0.2-3.7,0.9-5.5c1.5-2.3,3.5-3.5,6-3.5
			c5.6,0,11.4,5.9,13.1,7.7c2.6,2.9,2.5,5,1.9,6.3C75.7,61.5,74.2,62.4,73.3,62.4z M62,59.4h11.1c0.2-0.1,0.4-0.3,0.5-0.7
			c0.2-0.7-0.4-1.8-1.5-3c-2.9-3.1-7.4-6.8-10.9-6.8c-1.5,0-2.6,0.7-3.5,2.1c-0.7,1.1-0.9,2.1-0.6,3.1C57.8,56.6,60.6,58.6,62,59.4z
			"/>
	</g>
</g>
</svg>
